<svg width="4590" height="1847" viewBox="0 0 4590 1847" version="1.1" xmlns="http://www.w3.org/2000/svg" xmlns:xlink="http://www.w3.org/1999/xlink">
<title>sideways demo</title>
<desc>Created using Figma</desc>
<g id="Canvas" transform="translate(332 1053)">
<g id="Group">
<g id="// MacBook Pro 15">
<g id="Rectangle 117">
<use xlink:href="#path0_fill" transform="translate(1231.18 -171)" fill="#3D3D3D"/>
</g>
<g id=":: base">
<g id="Mask" filter="url(#filter0_i)">
<use xlink:href="#path1_fill" transform="translate(1102 725.072)" fill="#D3D3D3"/>
</g>
<g id="indicator light">
<use xlink:href="#path2_fill" transform="translate(2721.02 750.919)" fill="#B2B2B2"/>
</g>
<g id="lip">
<use xlink:href="#path3_fill" transform="translate(1881 725)" fill="#B2B2B2"/>
</g>
</g>
<g id="macbook label">
<use xlink:href="#path4_fill" transform="translate(1915 696)" fill="#626262"/>
</g>
<g id=":: screen">
<clipPath id="clip-0" clip-rule="evenodd">
<path d="M 1292 -111L 2642 -111L 2642 674L 1292 674L 1292 -111Z" fill="#FFFFFF"/>
</clipPath>
<g id="Frame" clip-path="url(#clip-0)">
<path d="M 1292 -111L 2642 -111L 2642 674L 1292 674L 1292 -111Z" fill="#EB5757"/>
<g id="1">
<use xlink:href="#path5_fill" transform="translate(1913 55)" fill="#FFFFFF"/>
</g>
</g>
</g>
<g id="webcam">
<use xlink:href="#path6_fill" transform="translate(1954.57 -153.768)" fill="#5C5C5C"/>
</g>
</g>
</g>
<clipPath id="clip-1" clip-rule="evenodd">
<path d="M -332 -111L 1018 -111L 1018 674L -332 674L -332 -111Z" fill="#FFFFFF"/>
</clipPath>
<g id="Frame" clip-path="url(#clip-1)">
<path d="M -332 -111L 1018 -111L 1018 674L -332 674L -332 -111Z" fill="#2D9CDB"/>
<g id="0">
<use xlink:href="#path7_fill" transform="translate(289 55)" fill="#FFFFFF"/>
</g>
</g>
<g id="Arrow 24.1">
<g id="Stroke 24">
<use xlink:href="#path8_stroke" transform="translate(1292 134)" fill="#4F4F4F" fill-opacity="0.3"/>
</g>
<g id="Arrow head 24">
<mask id="mask0_outline_ins">
<use xlink:href="#path9_fill" fill="white" transform="translate(1556 275)"/>
</mask>
<g mask="url(#mask0_outline_ins)">
<use xlink:href="#path10_stroke_2x" transform="translate(1556 275)" fill="#4F4F4F" fill-opacity="0.3"/>
</g>
</g>
</g>
<g id="Arrow 24.1">
<g id="Stroke 24">
<use xlink:href="#path8_stroke" transform="translate(754 134)" fill="#4F4F4F" fill-opacity="0.3"/>
</g>
<g id="Arrow head 24">
<mask id="mask1_outline_ins">
<use xlink:href="#path9_fill" fill="white" transform="translate(691 275)"/>
</mask>
<g mask="url(#mask1_outline_ins)">
<use xlink:href="#path10_stroke_2x" transform="translate(691 275)" fill="#4F4F4F" fill-opacity="0.3"/>
</g>
</g>
</g>
<g id="Stroke 24">
<use xlink:href="#path11_stroke" transform="translate(1018 134)" fill="#4F4F4F" fill-opacity="0.3"/>
</g>
<clipPath id="clip-2" clip-rule="evenodd">
<path d="M 2908 -111L 4258 -111L 4258 674L 2908 674L 2908 -111Z" fill="#FFFFFF"/>
</clipPath>
<g id="Frame" clip-path="url(#clip-2)">
<path d="M 2908 -111L 4258 -111L 4258 674L 2908 674L 2908 -111Z" fill="#0EAE6C"/>
<g id="2">
<use xlink:href="#path12_fill" transform="translate(3529 55)" fill="#FFFFFF"/>
</g>
</g>
<g id="Arrow 24.2">
<g id="Stroke 24">
<use xlink:href="#path8_stroke" transform="translate(2908 134)" fill="#4F4F4F" fill-opacity="0.3"/>
</g>
<g id="Arrow head 24">
<mask id="mask2_outline_ins">
<use xlink:href="#path9_fill" fill="white" transform="translate(3172 275)"/>
</mask>
<g mask="url(#mask2_outline_ins)">
<use xlink:href="#path10_stroke_2x" transform="translate(3172 275)" fill="#4F4F4F" fill-opacity="0.3"/>
</g>
</g>
</g>
<g id="Arrow 24.1">
<g id="Stroke 24">
<use xlink:href="#path8_stroke" transform="translate(2378 134)" fill="#4F4F4F" fill-opacity="0.3"/>
</g>
<g id="Arrow head 24">
<mask id="mask3_outline_ins">
<use xlink:href="#path9_fill" fill="white" transform="translate(2315 275)"/>
</mask>
<g mask="url(#mask3_outline_ins)">
<use xlink:href="#path10_stroke_2x" transform="translate(2315 275)" fill="#4F4F4F" fill-opacity="0.3"/>
</g>
</g>
</g>
<g id="Stroke 24.1">
<use xlink:href="#path11_stroke" transform="translate(2695 134)" fill="#4F4F4F" fill-opacity="0.3"/>
</g>
<g id="Sideways">
<use xlink:href="#path13_fill" transform="translate(1245 -1118)" fill="#4F4F4F"/>
</g>
<g id="fullscreen horizontal pages">
<use xlink:href="#path14_fill" transform="translate(996 -731)" fill="#828282"/>
</g>
</g>
<defs>
<filter id="filter0_i" filterUnits="userSpaceOnUse" x="1102" y="725" width="1723" height="70" color-interpolation-filters="sRGB">
<feFlood flood-opacity="0" result="BackgroundImageFix"/>
<feBlend mode="normal" in="SourceGraphic" in2="BackgroundImageFix" result="shape"/>
<feColorMatrix in="SourceAlpha" type="matrix" values="0 0 0 0 0 0 0 0 0 0 0 0 0 0 0 0 0 0 255 0" result="hardAlpha"/>
<feOffset dx="0" dy="-2"/>
<feComposite in2="hardAlpha" operator="arithmetic" k2="-1" k3="1"/>
<feColorMatrix type="matrix" values="0 0 0 0 0.730203 0 0 0 0 0.730203 0 0 0 0 0.730203 0 0 0 1 0"/>
<feBlend mode="normal" in2="shape" result="effect1_innerShadow"/>
</filter>
<path id="path0_fill" fill-rule="evenodd" d="M 0 4C 0 1.79086 1.79086 0 4 0L 1460.01 0C 1462.22 0 1464.01 1.79086 1464.01 4L 1464.01 896.071L 0 896.071L 0 4Z"/>
<path id="path1_fill" fill-rule="evenodd" d="M 0 0L 1722.36 0L 1722.36 65.9285C 1722.36 67.5854 1721.02 68.9285 1719.36 68.9285L 3 68.9285C 1.34315 68.9285 0 67.5854 0 65.9285L 0 0Z"/>
<path id="path2_fill" fill-rule="evenodd" d="M 0 0L 51.6709 0L 51.6709 8.61607L 0 8.61607L 0 0Z"/>
<path id="path3_fill" fill-rule="evenodd" d="M 0 0L 172.236 0L 172.236 22.8482C 172.236 24.5051 170.893 25.8482 169.236 25.8482L 3 25.8482C 1.34315 25.8482 0 24.5051 0 22.8482L 0 0Z"/>
<path id="path4_fill" fill-rule="evenodd" d="M 0 0L 103.342 0L 103.342 8.61607L 0 8.61607L 0 0Z"/>
<path id="path5_fill" d="M 51.84 327L 51.84 159.384L 10.944 178.968L 10.944 155.064L 59.04 128.856L 76.608 128.856L 76.608 327L 51.84 327Z"/>
<path id="path6_fill" fill-rule="evenodd" d="M 12.9177 25.8482C 20.052 25.8482 25.8354 20.0619 25.8354 12.9241C 25.8354 5.78632 20.052 0 12.9177 0C 5.78346 0 0 5.78632 0 12.9241C 0 20.0619 5.78346 25.8482 12.9177 25.8482Z"/>
<path id="path7_fill" d="M 96.768 329.304C 72.384 329.304 55.104 326.808 44.928 321.816C 34.944 316.632 28.608 307.608 25.92 294.744C 23.424 281.88 22.176 259.608 22.176 227.928C 22.176 196.248 23.424 173.976 25.92 161.112C 28.608 148.248 34.944 139.32 44.928 134.328C 55.104 129.144 72.384 126.552 96.768 126.552C 121.152 126.552 138.336 129.144 148.32 134.328C 158.496 139.32 164.832 148.344 167.328 161.4C 170.016 174.264 171.36 196.44 171.36 227.928C 171.36 259.608 170.016 281.88 167.328 294.744C 164.832 307.608 158.496 316.632 148.32 321.816C 138.336 326.808 121.152 329.304 96.768 329.304ZM 96.768 306.264C 114.432 306.264 126.24 305.016 132.192 302.52C 138.336 299.832 142.272 293.688 144 284.088C 145.728 274.488 146.592 255.768 146.592 227.928C 146.592 200.088 145.728 181.368 144 171.768C 142.272 162.168 138.336 156.12 132.192 153.624C 126.24 150.936 114.432 149.592 96.768 149.592C 79.104 149.592 67.2 150.936 61.056 153.624C 54.912 156.12 50.976 162.168 49.248 171.768C 47.52 181.368 46.656 200.088 46.656 227.928C 46.656 255.768 47.52 274.488 49.248 284.088C 50.976 293.688 54.912 299.832 61.056 302.52C 67.2 305.016 79.104 306.264 96.768 306.264Z"/>
<path id="path8_stroke" d="M 0 178L 264 178L 264 168L 0 168L 0 178Z"/>
<path id="path9_fill" fill-rule="evenodd" d="M 0 0L 63 0L 63 63L 0 63L 0 0Z"/>
<path id="path10_stroke_2x" d="M 0 0L 0 -10L -10 -10L -10 0L 0 0ZM 63 0L 73 0L 73 -10L 63 -10L 63 0ZM 63 63L 63 73L 73 73L 73 63L 63 63ZM 0 63L -10 63L -10 73L 0 73L 0 63ZM 0 10L 63 10L 63 -10L 0 -10L 0 10ZM 53 0L 53 63L 73 63L 73 0L 53 0ZM 63 53L 0 53L 0 73L 63 73L 63 53ZM 10 63L 10 0L -10 0L -10 63L 10 63Z"/>
<path id="path11_stroke" d="M 0 178L 213 178L 213 168L 0 168L 0 178Z"/>
<path id="path12_fill" d="M 44.064 303.672L 155.232 303.672L 155.232 327L 20.16 327L 20.16 303.384C 20.16 286.872 20.736 274.872 21.888 267.384C 23.232 259.704 26.208 253.464 30.816 248.664C 35.424 243.672 43.104 238.872 53.856 234.264C 74.592 225.624 92.064 218.424 106.272 212.664C 113.376 209.784 118.56 207.096 121.824 204.6C 125.28 201.912 127.584 198.744 128.736 195.096C 130.08 191.448 130.752 186.456 130.752 180.12C 130.752 171.096 129.312 164.472 126.432 160.248C 123.744 156.024 119.04 153.24 112.32 151.896C 105.792 150.36 95.616 149.592 81.792 149.592C 66.624 149.592 47.424 150.84 24.192 153.336L 24.192 131.736C 32.256 130.2 42.432 128.952 54.72 127.992C 67.008 127.032 78.528 126.552 89.28 126.552C 103.68 126.552 115.488 127.704 124.704 130.008C 133.92 132.12 141.312 136.92 146.88 144.408C 152.448 151.704 155.232 162.744 155.232 177.528C 155.232 188.856 154.08 197.976 151.776 204.888C 149.472 211.8 145.728 217.368 140.544 221.592C 135.552 225.624 128.544 229.56 119.52 233.4L 59.904 257.88C 53.184 260.376 48.864 263.736 46.944 267.96C 45.792 270.648 45.024 273.72 44.64 277.176C 44.256 280.632 44.064 285.24 44.064 291L 44.064 303.672Z"/>
<path id="path13_fill" d="M 88.416 280.728C 73.44 280.728 59.04 278.328 45.216 273.528C 31.584 268.728 21.024 262.392 13.536 254.52L 21.888 238.104C 29.184 245.4 38.88 251.352 50.976 255.96C 63.072 260.376 75.552 262.584 88.416 262.584C 106.464 262.584 120 259.32 129.024 252.792C 138.048 246.072 142.56 237.432 142.56 226.872C 142.56 218.808 140.064 212.376 135.072 207.576C 130.272 202.776 124.32 199.128 117.216 196.632C 110.112 193.944 100.224 191.064 87.552 187.992C 72.384 184.152 60.288 180.504 51.264 177.048C 42.24 173.4 34.464 167.928 27.936 160.632C 21.6 153.336 18.432 143.448 18.432 130.968C 18.432 120.792 21.12 111.576 26.496 103.32C 31.872 94.872 40.128 88.152 51.264 83.16C 62.4 78.168 76.224 75.672 92.736 75.672C 104.256 75.672 115.488 77.304 126.432 80.568C 137.568 83.64 147.168 87.96 155.232 93.528L 148.032 110.52C 139.584 104.952 130.56 100.824 120.96 98.136C 111.36 95.256 101.952 93.816 92.736 93.816C 75.072 93.816 61.728 97.272 52.704 104.184C 43.872 110.904 39.456 119.64 39.456 130.392C 39.456 138.456 41.856 144.984 46.656 149.976C 51.648 154.776 57.792 158.52 65.088 161.208C 72.576 163.704 82.56 166.488 95.04 169.56C 109.824 173.208 121.728 176.856 130.752 180.504C 139.968 183.96 147.744 189.336 154.08 196.632C 160.416 203.736 163.584 213.432 163.584 225.72C 163.584 235.896 160.8 245.208 155.232 253.656C 149.856 261.912 141.504 268.536 130.176 273.528C 118.848 278.328 104.928 280.728 88.416 280.728ZM 205.7 127.512L 226.148 127.512L 226.148 279L 205.7 279L 205.7 127.512ZM 216.067 94.392C 211.844 94.392 208.291 92.952 205.411 90.072C 202.531 87.192 201.091 83.736 201.091 79.704C 201.091 75.864 202.531 72.504 205.411 69.624C 208.291 66.744 211.844 65.304 216.067 65.304C 220.291 65.304 223.844 66.744 226.724 69.624C 229.603 72.312 231.043 75.576 231.043 79.416C 231.043 83.64 229.603 87.192 226.724 90.072C 223.844 92.952 220.291 94.392 216.067 94.392ZM 421.283 65.304L 421.283 279L 401.699 279L 401.699 249.048C 395.555 259.224 387.395 267 377.219 272.376C 367.235 277.752 355.907 280.44 343.235 280.44C 329.027 280.44 316.163 277.176 304.643 270.648C 293.123 264.12 284.099 255 277.571 243.288C 271.043 231.576 267.779 218.232 267.779 203.256C 267.779 188.28 271.043 174.936 277.571 163.224C 284.099 151.512 293.123 142.488 304.643 136.152C 316.163 129.624 329.027 126.36 343.235 126.36C 355.523 126.36 366.563 128.952 376.355 134.136C 386.339 139.128 394.499 146.52 400.835 156.312L 400.835 65.304L 421.283 65.304ZM 344.963 262.296C 355.523 262.296 365.027 259.896 373.475 255.096C 382.115 250.104 388.835 243.096 393.635 234.072C 398.627 225.048 401.123 214.776 401.123 203.256C 401.123 191.736 398.627 181.464 393.635 172.44C 388.835 163.416 382.115 156.504 373.475 151.704C 365.027 146.712 355.523 144.216 344.963 144.216C 334.211 144.216 324.515 146.712 315.875 151.704C 307.427 156.504 300.707 163.416 295.715 172.44C 290.915 181.464 288.515 191.736 288.515 203.256C 288.515 214.776 290.915 225.048 295.715 234.072C 300.707 243.096 307.427 250.104 315.875 255.096C 324.515 259.896 334.211 262.296 344.963 262.296ZM 610.135 209.592L 483.415 209.592C 484.567 225.336 490.615 238.104 501.559 247.896C 512.503 257.496 526.327 262.296 543.031 262.296C 552.439 262.296 561.079 260.664 568.951 257.4C 576.823 253.944 583.639 248.952 589.399 242.424L 600.919 255.672C 594.199 263.736 585.751 269.88 575.575 274.104C 565.591 278.328 554.551 280.44 542.455 280.44C 526.903 280.44 513.079 277.176 500.983 270.648C 489.079 263.928 479.767 254.712 473.047 243C 466.327 231.288 462.967 218.04 462.967 203.256C 462.967 188.472 466.135 175.224 472.471 163.512C 478.999 151.8 487.831 142.68 498.967 136.152C 510.295 129.624 522.967 126.36 536.983 126.36C 550.999 126.36 563.575 129.624 574.711 136.152C 585.847 142.68 594.583 151.8 600.919 163.512C 607.255 175.032 610.423 188.28 610.423 203.256L 610.135 209.592ZM 536.983 143.928C 522.391 143.928 510.103 148.632 500.119 158.04C 490.327 167.256 484.759 179.352 483.415 194.328L 590.839 194.328C 589.495 179.352 583.831 167.256 573.847 158.04C 564.055 148.632 551.767 143.928 536.983 143.928ZM 871.567 127.512L 814.255 279L 794.959 279L 747.151 154.872L 699.343 279L 680.047 279L 623.023 127.512L 642.607 127.512L 690.127 256.248L 738.799 127.512L 756.367 127.512L 804.751 256.248L 852.847 127.512L 871.567 127.512ZM 950.848 126.36C 970.624 126.36 985.792 131.352 996.352 141.336C 1006.91 151.128 1012.19 165.72 1012.19 185.112L 1012.19 279L 992.608 279L 992.608 255.384C 988 263.256 981.184 269.4 972.16 273.816C 963.328 278.232 952.768 280.44 940.48 280.44C 923.584 280.44 910.144 276.408 900.16 268.344C 890.176 260.28 885.184 249.624 885.184 236.376C 885.184 223.512 889.792 213.144 899.008 205.272C 908.416 197.4 923.296 193.464 943.648 193.464L 991.744 193.464L 991.744 184.248C 991.744 171.192 988.096 161.304 980.8 154.584C 973.504 147.672 962.848 144.216 948.832 144.216C 939.232 144.216 930.016 145.848 921.184 149.112C 912.352 152.184 904.768 156.504 898.432 162.072L 889.216 146.808C 896.896 140.28 906.112 135.288 916.864 131.832C 927.616 128.184 938.944 126.36 950.848 126.36ZM 943.648 264.312C 955.168 264.312 965.056 261.72 973.312 256.536C 981.568 251.16 987.712 243.48 991.744 233.496L 991.744 208.728L 944.224 208.728C 918.304 208.728 905.344 217.752 905.344 235.8C 905.344 244.632 908.704 251.64 915.424 256.824C 922.144 261.816 931.552 264.312 943.648 264.312ZM 1192.21 127.512L 1116.47 297.144C 1110.33 311.352 1103.22 321.432 1095.16 327.384C 1087.09 333.336 1077.4 336.312 1066.07 336.312C 1058.77 336.312 1051.96 335.16 1045.62 332.856C 1039.29 330.552 1033.81 327.096 1029.21 322.488L 1038.71 307.224C 1046.39 314.904 1055.61 318.744 1066.36 318.744C 1073.27 318.744 1079.13 316.824 1083.93 312.984C 1088.92 309.144 1093.53 302.616 1097.75 293.4L 1104.37 278.712L 1036.69 127.512L 1058.01 127.512L 1115.03 256.248L 1172.05 127.512L 1192.21 127.512ZM 1259.93 280.44C 1247.64 280.44 1235.84 278.712 1224.51 275.256C 1213.37 271.608 1204.64 267.096 1198.3 261.72L 1207.52 245.592C 1213.85 250.584 1221.82 254.712 1231.42 257.976C 1241.02 261.048 1251 262.584 1261.37 262.584C 1275.2 262.584 1285.37 260.472 1291.9 256.248C 1298.62 251.832 1301.98 245.688 1301.98 237.816C 1301.98 232.248 1300.16 227.928 1296.51 224.856C 1292.86 221.592 1288.25 219.192 1282.68 217.656C 1277.12 215.928 1269.72 214.296 1260.51 212.76C 1248.22 210.456 1238.33 208.152 1230.84 205.848C 1223.36 203.352 1216.92 199.224 1211.55 193.464C 1206.36 187.704 1203.77 179.736 1203.77 169.56C 1203.77 156.888 1209.05 146.52 1219.61 138.456C 1230.17 130.392 1244.86 126.36 1263.68 126.36C 1273.47 126.36 1283.26 127.704 1293.05 130.392C 1302.84 132.888 1310.91 136.248 1317.24 140.472L 1308.32 156.888C 1295.84 148.248 1280.96 143.928 1263.68 143.928C 1250.62 143.928 1240.73 146.232 1234.01 150.84C 1227.48 155.448 1224.22 161.496 1224.22 168.984C 1224.22 174.744 1226.04 179.352 1229.69 182.808C 1233.53 186.264 1238.24 188.856 1243.8 190.584C 1249.37 192.12 1257.05 193.752 1266.84 195.48C 1278.94 197.784 1288.64 200.088 1295.93 202.392C 1303.23 204.696 1309.47 208.632 1314.65 214.2C 1319.84 219.768 1322.43 227.448 1322.43 237.24C 1322.43 250.488 1316.86 261.048 1305.72 268.92C 1294.78 276.6 1279.52 280.44 1259.93 280.44Z"/>
<path id="path14_fill" d="M 39.312 40.072C 34.896 40.072 31.536 41.272 29.232 43.672C 27.024 46.072 25.92 49.624 25.92 54.328L 25.92 63.256L 49.248 63.256L 49.248 71.896L 26.208 71.896L 26.208 139L 15.984 139L 15.984 71.896L 2.448 71.896L 2.448 63.256L 15.984 63.256L 15.984 53.896C 15.984 46.984 17.952 41.512 21.888 37.48C 25.92 33.448 31.584 31.432 38.88 31.432C 41.76 31.432 44.544 31.864 47.232 32.728C 49.92 33.496 52.176 34.648 54 36.184L 50.544 43.816C 47.568 41.32 43.824 40.072 39.312 40.072ZM 131.309 63.256L 131.309 139L 121.517 139L 121.517 125.176C 118.829 129.784 115.133 133.384 110.429 135.976C 105.725 138.472 100.349 139.72 94.3009 139.72C 84.4129 139.72 76.5889 136.984 70.8289 131.512C 65.1649 125.944 62.3329 117.832 62.3329 107.176L 62.3329 63.256L 72.5569 63.256L 72.5569 106.168C 72.5569 114.136 74.5249 120.184 78.4609 124.312C 82.3969 128.44 88.0129 130.504 95.3089 130.504C 103.277 130.504 109.565 128.104 114.173 123.304C 118.781 118.408 121.085 111.64 121.085 103L 121.085 63.256L 131.309 63.256ZM 159.944 32.152L 170.167 32.152L 170.167 139L 159.944 139L 159.944 32.152ZM 198.615 32.152L 208.839 32.152L 208.839 139L 198.615 139L 198.615 32.152ZM 257.591 139.72C 251.447 139.72 245.543 138.856 239.879 137.128C 234.311 135.304 229.943 133.048 226.775 130.36L 231.383 122.296C 234.551 124.792 238.535 126.856 243.335 128.488C 248.135 130.024 253.127 130.792 258.311 130.792C 265.223 130.792 270.311 129.736 273.575 127.624C 276.935 125.416 278.615 122.344 278.615 118.408C 278.615 115.624 277.703 113.464 275.879 111.928C 274.055 110.296 271.751 109.096 268.967 108.328C 266.183 107.464 262.487 106.648 257.879 105.88C 251.735 104.728 246.791 103.576 243.047 102.424C 239.303 101.176 236.087 99.112 233.399 96.232C 230.807 93.352 229.511 89.368 229.511 84.28C 229.511 77.944 232.151 72.76 237.431 68.728C 242.711 64.696 250.055 62.68 259.463 62.68C 264.359 62.68 269.255 63.352 274.151 64.696C 279.047 65.944 283.079 67.624 286.247 69.736L 281.783 77.944C 275.543 73.624 268.103 71.464 259.463 71.464C 252.935 71.464 247.991 72.616 244.631 74.92C 241.367 77.224 239.735 80.248 239.735 83.992C 239.735 86.872 240.647 89.176 242.471 90.904C 244.391 92.632 246.743 93.928 249.527 94.792C 252.311 95.56 256.151 96.376 261.047 97.24C 267.095 98.392 271.943 99.544 275.591 100.696C 279.239 101.848 282.359 103.816 284.951 106.6C 287.543 109.384 288.839 113.224 288.839 118.12C 288.839 124.744 286.055 130.024 280.487 133.96C 275.015 137.8 267.383 139.72 257.591 139.72ZM 339.132 139.72C 331.644 139.72 324.924 138.088 318.972 134.824C 313.116 131.56 308.508 127 305.148 121.144C 301.788 115.192 300.108 108.52 300.108 101.128C 300.108 93.736 301.788 87.112 305.148 81.256C 308.508 75.4 313.116 70.84 318.972 67.576C 324.924 64.312 331.644 62.68 339.132 62.68C 345.66 62.68 351.468 63.976 356.556 66.568C 361.74 69.064 365.82 72.76 368.796 77.656L 361.164 82.84C 358.668 79.096 355.5 76.312 351.66 74.488C 347.82 72.568 343.644 71.608 339.132 71.608C 333.66 71.608 328.716 72.856 324.3 75.352C 319.98 77.752 316.572 81.208 314.076 85.72C 311.676 90.232 310.476 95.368 310.476 101.128C 310.476 106.984 311.676 112.168 314.076 116.68C 316.572 121.096 319.98 124.552 324.3 127.048C 328.716 129.448 333.66 130.648 339.132 130.648C 343.644 130.648 347.82 129.736 351.66 127.912C 355.5 126.088 358.668 123.304 361.164 119.56L 368.796 124.744C 365.82 129.64 361.74 133.384 356.556 135.976C 351.372 138.472 345.564 139.72 339.132 139.72ZM 398.673 78.088C 401.073 73 404.625 69.16 409.329 66.568C 414.129 63.976 420.033 62.68 427.041 62.68L 427.041 72.616L 424.593 72.472C 416.625 72.472 410.385 74.92 405.873 79.816C 401.361 84.712 399.105 91.576 399.105 100.408L 399.105 139L 388.881 139L 388.881 63.256L 398.673 63.256L 398.673 78.088ZM 510.802 104.296L 447.442 104.296C 448.018 112.168 451.042 118.552 456.514 123.448C 461.986 128.248 468.898 130.648 477.25 130.648C 481.954 130.648 486.274 129.832 490.21 128.2C 494.146 126.472 497.554 123.976 500.434 120.712L 506.194 127.336C 502.834 131.368 498.61 134.44 493.522 136.552C 488.53 138.664 483.01 139.72 476.962 139.72C 469.186 139.72 462.274 138.088 456.226 134.824C 450.274 131.464 445.618 126.856 442.258 121C 438.898 115.144 437.218 108.52 437.218 101.128C 437.218 93.736 438.802 87.112 441.97 81.256C 445.234 75.4 449.65 70.84 455.218 67.576C 460.882 64.312 467.218 62.68 474.226 62.68C 481.234 62.68 487.522 64.312 493.09 67.576C 498.658 70.84 503.026 75.4 506.194 81.256C 509.362 87.016 510.946 93.64 510.946 101.128L 510.802 104.296ZM 474.226 71.464C 466.93 71.464 460.786 73.816 455.794 78.52C 450.898 83.128 448.114 89.176 447.442 96.664L 501.154 96.664C 500.482 89.176 497.65 83.128 492.658 78.52C 487.762 73.816 481.618 71.464 474.226 71.464ZM 597.708 104.296L 534.348 104.296C 534.924 112.168 537.948 118.552 543.42 123.448C 548.892 128.248 555.804 130.648 564.156 130.648C 568.86 130.648 573.18 129.832 577.116 128.2C 581.052 126.472 584.46 123.976 587.34 120.712L 593.1 127.336C 589.74 131.368 585.516 134.44 580.428 136.552C 575.436 138.664 569.916 139.72 563.868 139.72C 556.092 139.72 549.18 138.088 543.132 134.824C 537.18 131.464 532.524 126.856 529.164 121C 525.804 115.144 524.124 108.52 524.124 101.128C 524.124 93.736 525.708 87.112 528.876 81.256C 532.14 75.4 536.556 70.84 542.124 67.576C 547.788 64.312 554.124 62.68 561.132 62.68C 568.14 62.68 574.428 64.312 579.996 67.576C 585.564 70.84 589.932 75.4 593.1 81.256C 596.268 87.016 597.852 93.64 597.852 101.128L 597.708 104.296ZM 561.132 71.464C 553.836 71.464 547.692 73.816 542.7 78.52C 537.804 83.128 535.02 89.176 534.348 96.664L 588.06 96.664C 587.388 89.176 584.556 83.128 579.564 78.52C 574.668 73.816 568.524 71.464 561.132 71.464ZM 657.254 62.68C 666.758 62.68 674.294 65.464 679.862 71.032C 685.526 76.504 688.358 84.52 688.358 95.08L 688.358 139L 678.134 139L 678.134 96.088C 678.134 88.216 676.166 82.216 672.23 78.088C 668.294 73.96 662.678 71.896 655.382 71.896C 647.222 71.896 640.742 74.344 635.942 79.24C 631.238 84.04 628.886 90.712 628.886 99.256L 628.886 139L 618.662 139L 618.662 63.256L 628.454 63.256L 628.454 77.224C 631.238 72.616 635.078 69.064 639.974 66.568C 644.966 63.976 650.726 62.68 657.254 62.68ZM 792.395 62.68C 801.899 62.68 809.435 65.464 815.003 71.032C 820.667 76.504 823.499 84.52 823.499 95.08L 823.499 139L 813.275 139L 813.275 96.088C 813.275 88.216 811.307 82.216 807.371 78.088C 803.435 73.96 797.819 71.896 790.523 71.896C 782.363 71.896 775.883 74.344 771.083 79.24C 766.379 84.04 764.027 90.712 764.027 99.256L 764.027 139L 753.803 139L 753.803 32.152L 764.027 32.152L 764.027 76.504C 766.811 72.088 770.651 68.68 775.547 66.28C 780.443 63.88 786.059 62.68 792.395 62.68ZM 882.497 139.72C 875.201 139.72 868.625 138.088 862.769 134.824C 856.913 131.464 852.305 126.856 848.945 121C 845.585 115.144 843.905 108.52 843.905 101.128C 843.905 93.736 845.585 87.112 848.945 81.256C 852.305 75.4 856.913 70.84 862.769 67.576C 868.625 64.312 875.201 62.68 882.497 62.68C 889.793 62.68 896.369 64.312 902.225 67.576C 908.081 70.84 912.641 75.4 915.905 81.256C 919.265 87.112 920.945 93.736 920.945 101.128C 920.945 108.52 919.265 115.144 915.905 121C 912.641 126.856 908.081 131.464 902.225 134.824C 896.369 138.088 889.793 139.72 882.497 139.72ZM 882.497 130.648C 887.873 130.648 892.673 129.448 896.897 127.048C 901.217 124.552 904.577 121.048 906.977 116.536C 909.377 112.024 910.577 106.888 910.577 101.128C 910.577 95.368 909.377 90.232 906.977 85.72C 904.577 81.208 901.217 77.752 896.897 75.352C 892.673 72.856 887.873 71.608 882.497 71.608C 877.121 71.608 872.273 72.856 867.953 75.352C 863.729 77.752 860.369 81.208 857.873 85.72C 855.473 90.232 854.273 95.368 854.273 101.128C 854.273 106.888 855.473 112.024 857.873 116.536C 860.369 121.048 863.729 124.552 867.953 127.048C 872.273 129.448 877.121 130.648 882.497 130.648ZM 951.611 78.088C 954.01 73 957.562 69.16 962.266 66.568C 967.066 63.976 972.97 62.68 979.978 62.68L 979.978 72.616L 977.53 72.472C 969.562 72.472 963.323 74.92 958.811 79.816C 954.299 84.712 952.043 91.576 952.043 100.408L 952.043 139L 941.818 139L 941.818 63.256L 951.611 63.256L 951.611 78.088ZM 998.49 63.256L 1008.71 63.256L 1008.71 139L 998.49 139L 998.49 63.256ZM 1003.67 46.696C 1001.56 46.696 999.786 45.976 998.346 44.536C 996.906 43.096 996.186 41.368 996.186 39.352C 996.186 37.432 996.906 35.752 998.346 34.312C 999.786 32.872 1001.56 32.152 1003.67 32.152C 1005.79 32.152 1007.56 32.872 1009 34.312C 1010.44 35.656 1011.16 37.288 1011.16 39.208C 1011.16 41.32 1010.44 43.096 1009 44.536C 1007.56 45.976 1005.79 46.696 1003.67 46.696ZM 1090.59 130.504L 1090.59 139L 1028.95 139L 1028.95 132.232L 1076.62 71.896L 1029.82 71.896L 1029.82 63.256L 1089.72 63.256L 1089.72 70.024L 1042.06 130.504L 1090.59 130.504ZM 1140.4 139.72C 1133.11 139.72 1126.53 138.088 1120.68 134.824C 1114.82 131.464 1110.21 126.856 1106.85 121C 1103.49 115.144 1101.81 108.52 1101.81 101.128C 1101.81 93.736 1103.49 87.112 1106.85 81.256C 1110.21 75.4 1114.82 70.84 1120.68 67.576C 1126.53 64.312 1133.11 62.68 1140.4 62.68C 1147.7 62.68 1154.28 64.312 1160.13 67.576C 1165.99 70.84 1170.55 75.4 1173.81 81.256C 1177.17 87.112 1178.85 93.736 1178.85 101.128C 1178.85 108.52 1177.17 115.144 1173.81 121C 1170.55 126.856 1165.99 131.464 1160.13 134.824C 1154.28 138.088 1147.7 139.72 1140.4 139.72ZM 1140.4 130.648C 1145.78 130.648 1150.58 129.448 1154.8 127.048C 1159.12 124.552 1162.48 121.048 1164.88 116.536C 1167.28 112.024 1168.48 106.888 1168.48 101.128C 1168.48 95.368 1167.28 90.232 1164.88 85.72C 1162.48 81.208 1159.12 77.752 1154.8 75.352C 1150.58 72.856 1145.78 71.608 1140.4 71.608C 1135.03 71.608 1130.18 72.856 1125.86 75.352C 1121.64 77.752 1118.28 81.208 1115.78 85.72C 1113.38 90.232 1112.18 95.368 1112.18 101.128C 1112.18 106.888 1113.38 112.024 1115.78 116.536C 1118.28 121.048 1121.64 124.552 1125.86 127.048C 1130.18 129.448 1135.03 130.648 1140.4 130.648ZM 1238.32 62.68C 1247.82 62.68 1255.36 65.464 1260.92 71.032C 1266.59 76.504 1269.42 84.52 1269.42 95.08L 1269.42 139L 1259.2 139L 1259.2 96.088C 1259.2 88.216 1257.23 82.216 1253.29 78.088C 1249.36 73.96 1243.74 71.896 1236.44 71.896C 1228.28 71.896 1221.8 74.344 1217 79.24C 1212.3 84.04 1209.95 90.712 1209.95 99.256L 1209.95 139L 1199.72 139L 1199.72 63.256L 1209.52 63.256L 1209.52 77.224C 1212.3 72.616 1216.14 69.064 1221.04 66.568C 1226.03 63.976 1231.79 62.68 1238.32 62.68ZM 1337.07 134.392C 1335.15 136.12 1332.75 137.464 1329.87 138.424C 1327.08 139.288 1324.15 139.72 1321.08 139.72C 1313.98 139.72 1308.51 137.8 1304.67 133.96C 1300.83 130.12 1298.91 124.696 1298.91 117.688L 1298.91 71.896L 1285.37 71.896L 1285.37 63.256L 1298.91 63.256L 1298.91 46.696L 1309.13 46.696L 1309.13 63.256L 1332.17 63.256L 1332.17 71.896L 1309.13 71.896L 1309.13 117.112C 1309.13 121.624 1310.23 125.08 1312.44 127.48C 1314.75 129.784 1318.01 130.936 1322.23 130.936C 1324.35 130.936 1326.36 130.6 1328.28 129.928C 1330.3 129.256 1332.03 128.296 1333.47 127.048L 1337.07 134.392ZM 1382.17 62.68C 1392.06 62.68 1399.65 65.176 1404.93 70.168C 1410.21 75.064 1412.85 82.36 1412.85 92.056L 1412.85 139L 1403.05 139L 1403.05 127.192C 1400.75 131.128 1397.34 134.2 1392.83 136.408C 1388.41 138.616 1383.13 139.72 1376.99 139.72C 1368.54 139.72 1361.82 137.704 1356.83 133.672C 1351.84 129.64 1349.34 124.312 1349.34 117.688C 1349.34 111.256 1351.65 106.072 1356.25 102.136C 1360.96 98.2 1368.4 96.232 1378.57 96.232L 1402.62 96.232L 1402.62 91.624C 1402.62 85.096 1400.8 80.152 1397.15 76.792C 1393.5 73.336 1388.17 71.608 1381.17 71.608C 1376.37 71.608 1371.76 72.424 1367.34 74.056C 1362.93 75.592 1359.13 77.752 1355.97 80.536L 1351.36 72.904C 1355.2 69.64 1359.81 67.144 1365.18 65.416C 1370.56 63.592 1376.22 62.68 1382.17 62.68ZM 1378.57 131.656C 1384.33 131.656 1389.28 130.36 1393.41 127.768C 1397.53 125.08 1400.61 121.24 1402.62 116.248L 1402.62 103.864L 1378.86 103.864C 1365.9 103.864 1359.42 108.376 1359.42 117.4C 1359.42 121.816 1361.1 125.32 1364.46 127.912C 1367.82 130.408 1372.53 131.656 1378.57 131.656ZM 1440.62 32.152L 1450.84 32.152L 1450.84 139L 1440.62 139L 1440.62 32.152ZM 1556 62.68C 1563.1 62.68 1569.53 64.312 1575.29 67.576C 1581.05 70.744 1585.57 75.256 1588.83 81.112C 1592.09 86.968 1593.73 93.64 1593.73 101.128C 1593.73 108.712 1592.09 115.432 1588.83 121.288C 1585.57 127.144 1581.05 131.704 1575.29 134.968C 1569.63 138.136 1563.2 139.72 1556 139.72C 1549.85 139.72 1544.29 138.472 1539.29 135.976C 1534.4 133.384 1530.37 129.64 1527.2 124.744L 1527.2 166.936L 1516.97 166.936L 1516.97 63.256L 1526.77 63.256L 1526.77 78.232C 1529.84 73.24 1533.87 69.4 1538.86 66.712C 1543.95 64.024 1549.66 62.68 1556 62.68ZM 1555.28 130.648C 1560.56 130.648 1565.36 129.448 1569.68 127.048C 1574 124.552 1577.36 121.048 1579.76 116.536C 1582.25 112.024 1583.5 106.888 1583.5 101.128C 1583.5 95.368 1582.25 90.28 1579.76 85.864C 1577.36 81.352 1574 77.848 1569.68 75.352C 1565.36 72.856 1560.56 71.608 1555.28 71.608C 1549.9 71.608 1545.05 72.856 1540.73 75.352C 1536.51 77.848 1533.15 81.352 1530.65 85.864C 1528.25 90.28 1527.05 95.368 1527.05 101.128C 1527.05 106.888 1528.25 112.024 1530.65 116.536C 1533.15 121.048 1536.51 124.552 1540.73 127.048C 1545.05 129.448 1549.9 130.648 1555.28 130.648ZM 1640.64 62.68C 1650.53 62.68 1658.11 65.176 1663.39 70.168C 1668.67 75.064 1671.31 82.36 1671.31 92.056L 1671.31 139L 1661.52 139L 1661.52 127.192C 1659.22 131.128 1655.81 134.2 1651.3 136.408C 1646.88 138.616 1641.6 139.72 1635.46 139.72C 1627.01 139.72 1620.29 137.704 1615.3 133.672C 1610.31 129.64 1607.81 124.312 1607.81 117.688C 1607.81 111.256 1610.11 106.072 1614.72 102.136C 1619.43 98.2 1626.87 96.232 1637.04 96.232L 1661.09 96.232L 1661.09 91.624C 1661.09 85.096 1659.27 80.152 1655.62 76.792C 1651.97 73.336 1646.64 71.608 1639.63 71.608C 1634.83 71.608 1630.23 72.424 1625.81 74.056C 1621.39 75.592 1617.6 77.752 1614.43 80.536L 1609.83 72.904C 1613.67 69.64 1618.27 67.144 1623.65 65.416C 1629.03 63.592 1634.69 62.68 1640.64 62.68ZM 1637.04 131.656C 1642.8 131.656 1647.75 130.36 1651.87 127.768C 1656 125.08 1659.07 121.24 1661.09 116.248L 1661.09 103.864L 1637.33 103.864C 1624.37 103.864 1617.89 108.376 1617.89 117.4C 1617.89 121.816 1619.57 125.32 1622.93 127.912C 1626.29 130.408 1630.99 131.656 1637.04 131.656ZM 1769.49 63.256L 1769.49 129.784C 1769.49 142.648 1766.33 152.152 1759.99 158.296C 1753.75 164.536 1744.29 167.656 1731.62 167.656C 1724.61 167.656 1717.94 166.6 1711.61 164.488C 1705.37 162.472 1700.28 159.64 1696.34 155.992L 1701.53 148.216C 1705.17 151.48 1709.59 154.024 1714.77 155.848C 1720.05 157.672 1725.57 158.584 1731.33 158.584C 1740.93 158.584 1747.99 156.328 1752.5 151.816C 1757.01 147.4 1759.27 140.488 1759.27 131.08L 1759.27 121.432C 1756.1 126.232 1751.93 129.88 1746.74 132.376C 1741.65 134.872 1735.99 136.12 1729.75 136.12C 1722.65 136.12 1716.17 134.584 1710.31 131.512C 1704.55 128.344 1699.99 123.976 1696.63 118.408C 1693.37 112.744 1691.73 106.36 1691.73 99.256C 1691.73 92.152 1693.37 85.816 1696.63 80.248C 1699.99 74.68 1704.55 70.36 1710.31 67.288C 1716.07 64.216 1722.55 62.68 1729.75 62.68C 1736.18 62.68 1741.99 63.976 1747.17 66.568C 1752.36 69.16 1756.53 72.904 1759.7 77.8L 1759.7 63.256L 1769.49 63.256ZM 1730.76 127.048C 1736.23 127.048 1741.17 125.896 1745.59 123.592C 1750.01 121.192 1753.41 117.88 1755.81 113.656C 1758.31 109.432 1759.56 104.632 1759.56 99.256C 1759.56 93.88 1758.31 89.128 1755.81 85C 1753.41 80.776 1750.01 77.512 1745.59 75.208C 1741.27 72.808 1736.33 71.608 1730.76 71.608C 1725.29 71.608 1720.34 72.76 1715.93 75.064C 1711.61 77.368 1708.2 80.632 1705.7 84.856C 1703.3 89.08 1702.1 93.88 1702.1 99.256C 1702.1 104.632 1703.3 109.432 1705.7 113.656C 1708.2 117.88 1711.61 121.192 1715.93 123.592C 1720.34 125.896 1725.29 127.048 1730.76 127.048ZM 1864.04 104.296L 1800.68 104.296C 1801.25 112.168 1804.28 118.552 1809.75 123.448C 1815.22 128.248 1822.13 130.648 1830.48 130.648C 1835.19 130.648 1839.51 129.832 1843.44 128.2C 1847.38 126.472 1850.79 123.976 1853.67 120.712L 1859.43 127.336C 1856.07 131.368 1851.84 134.44 1846.76 136.552C 1841.76 138.664 1836.24 139.72 1830.2 139.72C 1822.42 139.72 1815.51 138.088 1809.46 134.824C 1803.51 131.464 1798.85 126.856 1795.49 121C 1792.13 115.144 1790.45 108.52 1790.45 101.128C 1790.45 93.736 1792.04 87.112 1795.2 81.256C 1798.47 75.4 1802.88 70.84 1808.45 67.576C 1814.12 64.312 1820.45 62.68 1827.46 62.68C 1834.47 62.68 1840.76 64.312 1846.32 67.576C 1851.89 70.84 1856.26 75.4 1859.43 81.256C 1862.6 87.016 1864.18 93.64 1864.18 101.128L 1864.04 104.296ZM 1827.46 71.464C 1820.16 71.464 1814.02 73.816 1809.03 78.52C 1804.13 83.128 1801.35 89.176 1800.68 96.664L 1854.39 96.664C 1853.72 89.176 1850.88 83.128 1845.89 78.52C 1841 73.816 1834.85 71.464 1827.46 71.464ZM 1905.29 139.72C 1899.15 139.72 1893.25 138.856 1887.58 137.128C 1882.01 135.304 1877.65 133.048 1874.48 130.36L 1879.09 122.296C 1882.25 124.792 1886.24 126.856 1891.04 128.488C 1895.84 130.024 1900.83 130.792 1906.01 130.792C 1912.93 130.792 1918.01 129.736 1921.28 127.624C 1924.64 125.416 1926.32 122.344 1926.32 118.408C 1926.32 115.624 1925.41 113.464 1923.58 111.928C 1921.76 110.296 1919.45 109.096 1916.67 108.328C 1913.89 107.464 1910.19 106.648 1905.58 105.88C 1899.44 104.728 1894.49 103.576 1890.75 102.424C 1887.01 101.176 1883.79 99.112 1881.1 96.232C 1878.51 93.352 1877.21 89.368 1877.21 84.28C 1877.21 77.944 1879.85 72.76 1885.13 68.728C 1890.41 64.696 1897.76 62.68 1907.17 62.68C 1912.06 62.68 1916.96 63.352 1921.85 64.696C 1926.75 65.944 1930.78 67.624 1933.95 69.736L 1929.49 77.944C 1923.25 73.624 1915.81 71.464 1907.17 71.464C 1900.64 71.464 1895.69 72.616 1892.33 74.92C 1889.07 77.224 1887.44 80.248 1887.44 83.992C 1887.44 86.872 1888.35 89.176 1890.17 90.904C 1892.09 92.632 1894.45 93.928 1897.23 94.792C 1900.01 95.56 1903.85 96.376 1908.75 97.24C 1914.8 98.392 1919.65 99.544 1923.29 100.696C 1926.94 101.848 1930.06 103.816 1932.65 106.6C 1935.25 109.384 1936.54 113.224 1936.54 118.12C 1936.54 124.744 1933.76 130.024 1928.19 133.96C 1922.72 137.8 1915.09 139.72 1905.29 139.72Z"/>
</defs>
</svg>
